<svg width="169" height="35" fill="none" xmlns="http://www.w3.org/2000/svg"><path fill-rule="evenodd" clip-rule="evenodd" d="M85.378 24.953h-.048l-9.621-13.798H73.22v16.614h1.973V13.97h.044l9.624 13.798h2.485V11.155h-1.97v13.798zm16.757-2.558c-.346.813-.813 1.483-1.41 2.01a5.674 5.674 0 0 1-2.112 1.16 8.98 8.98 0 0 1-2.65.374H92.21V12.983h3.754a8.98 8.98 0 0 1 2.65.376c.813.254 1.52.637 2.112 1.16.597.526 1.064 1.196 1.41 2.01.342.812.515 1.788.515 2.932 0 1.142-.173 2.124-.515 2.934zm1.24-7.803a6.855 6.855 0 0 0-1.465-1.583 8.432 8.432 0 0 0-1.737-1.07 8.774 8.774 0 0 0-3.552-.785h-6.385V27.77h6.385c.545 0 1.123-.063 1.734-.188a8.49 8.49 0 0 0 3.555-1.664 7.016 7.016 0 0 0 1.465-1.586 7.79 7.79 0 0 0 1.012-2.135c.251-.806.376-1.719.376-2.735 0-1.019-.125-1.928-.376-2.734a7.777 7.777 0 0 0-1.012-2.135zm7.115 4.07l-4.67-7.507h-2.514l6.198 9.459v7.155h1.973v-7.155l6.194-9.46h-2.37l-4.811 7.509zm43.442 5.742a2.747 2.747 0 0 1-.928.887 4.108 4.108 0 0 1-1.292.493 6.774 6.774 0 0 1-1.439.155h-3.334v-5.915h3.379c.5 0 .989.048 1.465.14.478.096.898.261 1.269.497.368.232.663.545.891.935.228.393.339.876.339 1.457 0 .534-.115.983-.35 1.351zm-6.993-11.42h2.933c.438 0 .872.036 1.303.106.427.07.81.2 1.149.387.338.187.607.441.813.761.199.324.302.74.302 1.26 0 .577-.107 1.041-.328 1.394a2.331 2.331 0 0 1-.868.821 3.5 3.5 0 0 1-1.211.386 9.745 9.745 0 0 1-1.373.096h-2.72v-5.212zm8.388 7.346a4.05 4.05 0 0 0-1.196-.88 4.164 4.164 0 0 0-1.491-.412v-.048c.895-.265 1.601-.71 2.127-1.347.523-.637.785-1.435.785-2.407 0-.766-.162-1.406-.483-1.925a3.898 3.898 0 0 0-1.255-1.255 5.482 5.482 0 0 0-1.759-.692 9.656 9.656 0 0 0-2.017-.21h-5.068v16.614h4.95c.765 0 1.535-.066 2.311-.21a6.464 6.464 0 0 0 2.087-.739 4.326 4.326 0 0 0 1.506-1.42c.379-.598.574-1.352.574-2.28 0-.544-.096-1.056-.283-1.534a3.936 3.936 0 0 0-.788-1.255z" fill="currentColor"></path><path fill-rule="evenodd" clip-rule="evenodd" d="M168.186 21.302a3.924 3.924 0 0 0-1.1-1.347 6.32 6.32 0 0 0-1.598-.891 30.635 30.635 0 0 0-1.862-.658 14.449 14.449 0 0 1-1.668-.611c-.452-.203-.816-.42-1.082-.656a2.125 2.125 0 0 1-.574-.788 2.643 2.643 0 0 1-.176-.997c0-.486.103-.905.305-1.27.207-.357.471-.647.814-.865.335-.22.713-.386 1.137-.493.423-.107.85-.165 1.288-.165.593 0 1.167.121 1.715.364.549.243.987.633 1.314 1.159l1.62-1.402c-.611-.721-1.303-1.226-2.076-1.516-.777-.291-1.634-.435-2.573-.435a7.27 7.27 0 0 0-2.112.306 5.807 5.807 0 0 0-1.808.902 4.39 4.39 0 0 0-1.266 1.49c-.313.597-.467 1.292-.467 2.087 0 .692.103 1.281.316 1.774.21.493.498.917.865 1.266.368.353.803.655 1.307.895a11.97 11.97 0 0 0 1.638.644c.74.253 1.376.467 1.928.659.545.187.998.397 1.362.632.357.236.622.512.795.833.169.323.258.743.258 1.254 0 .472-.107.888-.328 1.245-.217.36-.5.662-.847.905a3.742 3.742 0 0 1-1.159.548c-.43.129-.857.192-1.277.192a4.672 4.672 0 0 1-2.046-.468 3.548 3.548 0 0 1-1.502-1.387l-1.685 1.387c.279.42.614.777 1.004 1.064a5.73 5.73 0 0 0 1.259.707c.442.176.909.313 1.395.397.486.085.968.129 1.457.129.751 0 1.476-.099 2.183-.294.7-.196 1.321-.49 1.862-.891a4.487 4.487 0 0 0 1.303-1.513c.328-.611.494-1.329.494-2.16 0-.81-.137-1.491-.413-2.032z" fill="currentColor"></path><path fill-rule="evenodd" clip-rule="evenodd" d="M132.176 21.854l3.449-8.167h.048l3.283 8.167h-6.78zm2.602-10.7l-6.511 14.785h-7.107a.628.628 0 0 1-.6-.626V11.154h-1.972v14.16c0 1.357 1.1 2.455 2.455 2.455h8.645l1.715-4.082h8.307l1.69 4.082h2.3l-7.067-16.615h-1.855zm-86.942 1.543c2.371 0 4.442 1.295 5.598 3.239l1.785-1.123a8.734 8.734 0 0 0-7.39-4.082 8.73 8.73 0 0 0-8.73 8.731 8.73 8.73 0 0 0 8.73 8.73 8.74 8.74 0 0 0 7.39-4.082l-1.774-1.115c-1.152 1.951-3.23 3.257-5.609 3.257-3.622 0-6.559-3.036-6.559-6.779s2.937-6.776 6.56-6.776zm12.591 9.157l3.453-8.167h.047l3.287 8.167h-6.787zm2.61-10.7L55.711 27.77h2.231l1.711-4.082h8.311l1.686 4.082h2.303l-7.066-16.615h-1.852z" fill="currentColor"></path><path fill-rule="evenodd" clip-rule="evenodd" d="M24.42 5.924l-.383-.258L21.44 9.49l.379.262a11.015 11.015 0 0 1 4.832 9.106c0 6.068-4.94 11.008-11.012 11.008S4.627 24.926 4.627 18.858a11.01 11.01 0 0 1 4.829-9.106l.382-.262L7.24 5.666l-.382.258A15.651 15.651 0 0 0 0 18.858c0 8.623 7.015 15.638 15.638 15.638 8.62 0 15.635-7.015 15.635-15.638A15.647 15.647 0 0 0 24.42 5.924z" fill="#AC4"></path><path fill-rule="evenodd" clip-rule="evenodd" d="M18.057 22.097h3.78V17.47h-3.345a.54.54 0 0 1-.541-.538V1h-4.627v16.364a4.74 4.74 0 0 0 4.733 4.733z" fill="#AC4"></path></svg>
